<?xml version="1.0" encoding="utf-8"?>
<!-- Generator: Adobe Illustrator 14.0.0, SVG Export Plug-In . SVG Version: 6.00 Build 43363)  -->
<!DOCTYPE svg PUBLIC "-//W3C//DTD SVG 1.1//EN" "http://www.w3.org/Graphics/SVG/1.1/DTD/svg11.dtd">
<svg version="1.1" xmlns="http://www.w3.org/2000/svg" xmlns:xlink="http://www.w3.org/1999/xlink" x="0px" y="0px" width="500px"
	 height="500px" viewBox="0 0 500 500" enable-background="new 0 0 500 500" xml:space="preserve">
<g id="References">
	
		<image display="none" overflow="visible" width="720" height="400" id="Image1" xlink:href="photo.jpeg"  transform="matrix(3.2579 0 0 3.2579 51.084 -82.7305)">
	</image>
	<g id="Image2" display="none">
		
			<image display="inline" overflow="visible" width="175" height="175" xlink:href="barry.png"  transform="matrix(2.8 0 0 2.8 13.3896 6.6353)">
		</image>
	</g>
</g>
<g id="Shadow">
	<g id="Head_copy">
		<g id="Base_copy_4_">
		</g>
		<g id="Shadows_copy_2_">
			<g id="Base_copy_3_">
			</g>
			<g id="Darker_copy_2_3_">
			</g>
		</g>
		<g id="Highlights_copy_2_5_">
			<g id="Base_copy_2_">
			</g>
		</g>
	</g>
	<g id="Lips_copy">
		<g id="Base_copy_1_">
		</g>
		<g id="Shadows_copy_1_">
			<g id="Darker_copy_2_2_">
			</g>
		</g>
		<g id="Highlights_copy_2_4_">
		</g>
	</g>
	<g id="Eyes_copy">
		<g id="Shadows_copy">
		</g>
		<g id="Left_x5F_eye_copy">
			<g id="Iris_copy_1_">
				<g id="Layer_20_copy_2_1_">
				</g>
				<g id="Darker_copy_2_1_">
				</g>
				<g id="Highlights_copy_2_3_">
				</g>
			</g>
		</g>
		<g id="Right_x5F_eye_copy">
			<g id="Ducts_copy_1_">
			</g>
			<g id="Iris_copy">
				<g id="Layer_20_copy_2">
				</g>
				<g id="Darker_copy_2">
				</g>
				<g id="Highlights_copy_2_2_">
				</g>
			</g>
			<g id="Ducts_copy">
			</g>
			<g id="Lashes_copy">
			</g>
		</g>
	</g>
	<g id="Hair_copy">
		<g id="Beard_copy">
			<g id="Base_copy">
			</g>
		</g>
		<g id="Main_copy">
			<g id="Highlights_copy_2_1_">
			</g>
		</g>
		<g id="Eyebrows_copy">
		</g>
	</g>
	<g id="Glasses_copy">
		<g id="Frames_copy">
			<g id="Highlights_copy_2">
			</g>
		</g>
		<g id="Flares_copy">
		</g>
	</g>
	<path opacity="0.48" d="M412.669,255.246c0.842-1.932,1.427-3.885,1.665-5.912c0.199-1.693,0.353-3.372,0.47-5.079
		c1.02-5.735,1.53-13.983,1.53-27.588c0-22-1.334-26.667-4-47.333s-6-23.333-14-42c-3.951-9.219-8.88-17.947-14.3-25.949
		c-2.486-5.154-6.298-9.869-10.645-14.115c-2.332-2.789-4.693-5.443-7.056-7.937C354.334,66.667,331,54,313,46
		s-42.666-12.667-58-13.333s-26,2-49.333,7.333c-6.522,1.491-12.3,2.984-17.655,4.533c-6.771,1.786-13.277,3.954-19.725,6.624
		c-5.875,2.255-11.671,4.718-17.953,7.51c-18,8-34,26-43.333,36.667c-6.666,7.618-13.664,18.31-19.31,31.32
		c-3.714,7.397-6.05,13.983-6.655,19.079C75.913,167.006,79,205,79,205c0.325,3.085,0.916,6.492,1.666,10.16
		c1.649,13.332,4.754,23.32,5.668,30.174c0.667,9.333-0.667,16,3.333,25.333s2,16,2,16S94.333,284,94.333,280
		c-0.002-0.012-0.004-0.022-0.007-0.035c0.446,1.904,0.902,3.723,1.341,5.369c0,5.334,1.333,12,4.667,19.333
		c3.022,6.648,9.875,14.386,15.104,19.749c-0.633-0.422-1.275-0.878-1.938-1.416c0,0,5.809,7.615,13.176,7.684
		c0.626,0.026,0.991-0.017,0.991-0.017c0.723,0.614,1.43,1.141,2.13,1.638c1.236,0.944,2.989,2.275,5.201,3.935
		c0.812,0.762,1.642,1.655,2.502,2.761c-0.311-0.553-0.626-1.081-0.945-1.596c2.063,1.541,4.439,3.303,7.112,5.263
		c0.281,0.983,0.509,1.904,0.71,2.794c0.721,14.017,3.179,26.697,6.123,35.039c0.209,0.594,0.437,1.207,0.674,1.831
		c1.244,3.909,2.839,7.472,4.69,10.729c0.913,1.944,1.915,3.873,3.023,5.753c1.638,2.932,3.244,5.476,4.613,7.188
		c1.043,1.305,2.942,3.19,5.288,5.341c11.121,11.172,27.896,22.59,41.545,31.326c2.795,1.789,5.369,3.516,7.792,5.183
		c1.555,1.101,3.034,2.163,4.374,3.15c5.779,4.259,10.454,7.959,16.04,11.22c-0.18-0.073-0.362-0.143-0.54-0.22
		c1.098,0.634,2.258,1.241,3.444,1.835c1.842,1.059,3.679,2.011,5.556,2.832c1.402,0.613,2.993,1.133,4.713,1.572
		c7.057,2.438,14.846,3.632,22.065,3.839c2.857,0.101,5.728,0.036,8.586-0.225c0.842-0.072,1.659-0.163,2.461-0.265
		c0.216-0.028,0.432-0.06,0.647-0.091c1.047-0.145,2.066-0.306,3.027-0.498c7.5,1.5,21.5,1,31-4s10.5-4.5,16-14.5
		c0.051-0.093,0.098-0.184,0.147-0.276c1.321-2.216,2.546-4.611,3.853-7.224c3.593-7.186,6.121-13.517,7.759-18.324
		c0.537-1.412,1.071-2.846,1.604-4.306c5.89-10.733,12.811-22.437,18.637-41.37c0.497-1.615,0.957-3.119,1.39-4.542
		c1.369-3.984,2.617-7.729,4.61-13.458c2.877-10.069,4.371-15.535,4.488-19.054c0.366-1.245,0.778-2.579,1.224-3.978
		c3.473-9.919,7.949-21.185,10.703-31.622c0.435-1.386,0.806-2.633,1.085-3.68c1.359-5.098,1.678-10.023,1.664-15.216
		c0.001-0.012,0.002-0.023,0.002-0.035c2.496-1.184,4.731-2.899,6.668-5.416c3.078-4.001,6.339-11.031,7.812-17.246
		C410.736,264.76,418,265,418,265v-9.334L412.669,255.246z M393.604,219.198c0.165,1.478,0.312,2.901,0.453,4.302
		C393.899,222.129,393.748,220.691,393.604,219.198z M391.5,182.5c-0.003,0.081-0.005,0.154-0.008,0.235
		c-0.409-7.5-1.271-15.142-2.558-22.686c0.571,2.077,1.025,4.046,1.383,5.889C391.272,172.298,391.656,178.111,391.5,182.5z M97,238
		c-0.188,2.164-0.376,4.067-0.561,5.755c-1.432,2.958-2.679,5.603-3.506,7.491C93.844,246.112,95.361,241.825,97,238z
		 M396.996,282.826c-1.271,1.651-2.682,2.927-4.212,3.933c0.027-0.688,0.052-1.368,0.073-2.035
		c3.439-6.15,7.343-11.262,10.879-15.886C402.184,274.066,399.526,279.536,396.996,282.826z"/>
</g>
<g id="Art">
	<g id="Head">
		<g id="Base">
			<linearGradient id="SVGID_1_" gradientUnits="userSpaceOnUse" x1="78.353" y1="246.9072" x2="383.3857" y2="246.9072">
				<stop  offset="0" style="stop-color:#CD97A6"/>
				<stop  offset="0.1656" style="stop-color:#CFAAA3"/>
				<stop  offset="1" style="stop-color:#A97676"/>
			</linearGradient>
			<path fill="url(#SVGID_1_)" d="M282,35.667c0,0,29.334,2,53.334,32.667s25.334,30,32,48s10.666,39.333,11.333,59.333
				s2,38,4,47.333s-0.667,10.667-2,16s-1.333,11.334-1.333,23.334s1.332,21.333-1.334,31.333s-13.332,37.333-14.666,46
				S354,371.666,348.667,385s-9.334,19.333-12.667,26c-4.666,12.667-17.999,45.334-36.666,46.667s-18,2.001-24,0.667
				c-9.334,1.333-30.667,2-41.334-2.667s-20-13.333-36.667-24s-38-25.334-48-38.667S136,361.667,134,353.667s-0.666-12.667-3.333-22
				c-10-7.333-16-12-16-12S109.333,320.333,104,315s-13.333-14-16.667-21.333s-4.667-13.999-4.667-19.333
				c-2.667-10-6-26-3.333-32.667s16-32.667,16-32.667L94,173c0,0-4.667-43.333,10-63.333s42-52.667,80-64S261.333,33,282,35.667z"/>
		</g>
		<g id="Shadows">
			<g id="Base_1_">
				<linearGradient id="SVGID_2_" gradientUnits="userSpaceOnUse" x1="304.623" y1="189" x2="304.623" y2="461.1401">
					<stop  offset="0.0429" style="stop-color:#5C4238;stop-opacity:0"/>
					<stop  offset="0.1043" style="stop-color:#5C4238;stop-opacity:0.48"/>
					<stop  offset="0.5215" style="stop-color:#5C4238"/>
				</linearGradient>
				<path opacity="0.8" fill="url(#SVGID_2_)" d="M379.5,211c0,0-4.5-6.5-18.5-7.5s-27,5.5-30.5,7c0.5-4.5,5-11,3.5-21.5
					c-3.5,9.5-4,15-17,27c-5,5.5-7.5,16-6.5,23s3.5,11.5,5.5,17.5s3.5,18.5,4.5,26.5s7,22.5,8,26c4.5,4,8.167,16.667,5.5,19
					c-2.524,2.208-6,4.5-4.5-1c-1.5-1,0.5-7-3.5-11.5c-1.5-1.5-4.5-3-4.5-3s2.5,9-3,15S307,339,306,341.5s-7,4-12-1c2.5,6,2,6-1,9.5
					s-3,5-2,9s9,4,13,2c2-4.5,1-7.5,0.5-12c3-1.5,4-1,6,0c2,5,2,10,1.5,13.5c2.5,4-2,12-10,14.5c5,3.5-1,12.5-11,12
					c-6.5,0.5-13.5,3.5-13.5,3.5s-7,2.5-14.5,1c-4.5,0-6.5,2-7.5,3.5c5,0,6.5-0.5,13.5,1.5c-4.5,3-5.5,5-11.5,7.5
					c11,0.5,13.5,0.5,19,0.5c5.5,1,9,2.5,13,3s11.5-1.5,16-1c-6.5,6-16.5,7-26,8s-17,8-14.5,16.5s1,17-5.5,18.5s-23,4.5-34.5-0.5
					c13,7.5,32.5,12.5,50.5,9c13.5,1.5,23-0.5,33-5.5s13.5-11.5,18-20.5s7.334-16.666,8.834-21.666
					c6-11,13.166-22.834,19.166-42.334s7-24,10.5-37.5c5-15,13.334-34,14.334-48.5s0.666-23.666,0-35.667
					C382.834,234.833,385,233,384,224S379.5,211,379.5,211z"/>
				<path fill="#4A2021" d="M298,335.667c0,0-4.333-6-11.333-8.333s-13.333-0.333-11.333,2s5.332,3.333,7.666,4s5.334,1,5.334,1
					s-0.334-2.999,2.333-2.333S296.333,334,298,335.667z"/>
			</g>
			<g id="Darker_1_">
				<path fill="#492F2D" d="M297.667,347c0.333-2-0.667-3.333-0.667-3.333s2.333,1.332,4,1.666s6.333,0.666,11-6
					s10.001-11.667,11.667-16c-0.334,4.334-2.001,10-3.334,12c4.667-4,6.333-8.333,8-8.333s1.334,2.333,0.334,4
					s-4.334,4.333-7.334,6.333c-4.333,2.667-8,4.666-6.333,9c-2.667,0-1.001-2.334-5.667,0S303.667,348,301.667,349
					s-6.334,1.667-7.667,11.333C293.333,354.667,293.667,349.667,297.667,347z"/>
				<path fill="#AB5B5D" d="M114.5,252c0,0,3,9.5,0,12s-4,4.5-4,4.5s0,15,2.5,16.5s7.5,6,7,9.5s-1.5,5-5,2s-2.5-5.5-3.5-8.5
					s-3-4.5-8.5-5c-4-2-6.5-3-9.5-10s-3.5-12,0-15.5c3.5-2.5,1.5,0,5.5,0.5S108,260,114.5,252z"/>
				<linearGradient id="SVGID_3_" gradientUnits="userSpaceOnUse" x1="80.4917" y1="257.4922" x2="105.622" y2="232.3618">
					<stop  offset="0" style="stop-color:#6F2635"/>
					<stop  offset="0.4969" style="stop-color:#AC5C5E"/>
					<stop  offset="1" style="stop-color:#533D42"/>
				</linearGradient>
				<path fill="url(#SVGID_3_)" d="M112,244.5c0,0-4.5-13.5-12.5-17S89,230.5,86,237s-3,19.5-1,25c3-7.5,7.5-19,14-23.5
					c3.5,0,1,2.5,0.5,6C101,249,107.5,250,112,244.5z"/>
				<path fill="#BA9599" d="M100.5,312c0,0,6.334,8.334,14.167,7.667C118,322.5,121,323.5,124.5,328c-4.5-8-10-12-10-12
					S108.5,318.5,100.5,312z"/>
			</g>
		</g>
		<g id="Highlights">
			<g id="Base_4_">
				<linearGradient id="SVGID_4_" gradientUnits="userSpaceOnUse" x1="110.6396" y1="258.708" x2="288.9424" y2="258.708">
					<stop  offset="0" style="stop-color:#F0CBCD"/>
					<stop  offset="0.5583" style="stop-color:#F0CBCD"/>
					<stop  offset="1" style="stop-color:#F0CBCD;stop-opacity:0.22"/>
				</linearGradient>
				<path fill="url(#SVGID_4_)" d="M180,74.333c0,0,20-20,42-6.667s30.667,30.667,30.667,42s2.667,37.334,14.667,46.667
					s9.332,2,20.666,19.333c4,9.333-4.666,20-27.333,13.333c-14,1.333-39.333,4-44,10.667s-19.333,8.667-25.333,14.667
					s-9.333,17.333-6,23.333c-2,10,3.333,16.667,11.333,23.333c2.667,14,5.333,15.333,13.333,19.333c-6.667,6-4,6.667-15.333,8.667
					c8,5.333,11.333-1.333,19.333,6.667c4.667,6.666,7.334,32.666,0.667,46.666s-8,22-8,30.667c5.333-13.333,9.333-30.001,26-40.667
					c4.667,1.334,2,10-0.667,14.667s-15.333,15.333-14.667,23.333s-6.667,20-4,30.667c7.333,9.333,16,11.333,25.333,13.333
					s16.667,6,18,10.667s-4,16.001-15.333,16.667c-8,2-9.333,9.332-5.333,12.666c-13.333-6-25.333-16.667-40-26
					s-22.667-13.332-32.667-22.666s-22.667-20.666-26.667-40s-5.333-32-5.333-32s2-12.667-2-28.667
					c-2.667-4.667-2.667-4.667-2.667-4.667s-3.334,4.668-10.667,1.334c2.667-2.667,6-4.001,2-9.334
					c-2.667-5.333-2.666-2.666-5.333-5.333c-2-10.667-2.667-15.334-1.333-18.667s10-3.333,14-11.999
					C136.667,253,147.333,247,148,217S127.333,115.667,180,74.333z"/>
				<path fill="#F0CACD" d="M94,255.666c0,0-6,4.667-4,10.667s5.334,13.333,10.667,16S112,288.334,112,291.667s-4,8.667-10,4
					c-3.333,1.333,0,5.999-3.333,8.666c-6-2-10.667-8-13.333-23.333C90,285.667,96,294.333,102,288.333
					c-6-4.666-10.666-4.666-13.333-15.333S86.667,263,94,255.666z"/>
				<path opacity="0.77" fill="#F0CACD" d="M300.667,249.667c0,0,5.333,14,4,28c1.333,11.333,5.333,18.666,4,26.666
					c-0.667,8.667-0.666,16.666-9.333,16s-17.334-4-22.667-1.333s-7.334,6.666-6.667,11.333c-4.666-1.333-13.333-16.667-1.333-24
					c-0.667-6-2.666-9.334-7.333-10c6.666-6.666,2.666-18-10.667-26c10-4.666,15.333-9.333,17.333-13.999
					c4.667,0,4.668-0.001,7.334,3.999c0-7.333-8-8.666-10-12s0-5.333,4-3.333c8,1.333,12.666-8,11.333-14.667
					c12-4,19.333-4.667,25.333-1.333C300.667,237,299.334,234.333,300.667,249.667z"/>
			</g>
		</g>
	</g>
	<g id="Lips">
		<g id="Base_2_">
			<path fill="#7B323B" d="M244,369.667c0,0,2,2.001,12,0.334s17.999-3,31.333-4.667c4.667,2,8.666,3.999,13,4.333
				c6-0.666,9.668-0.999,12.334-3.666c4.666,2,6.666,4.999,11.666,4.666c3.667-0.333,2.667-0.334,4.667-2
				c-4.333,6.334-4.667,11-16,17c-3.333,4-7.999,7.666-15.333,8s-18.333,3.334-30-3.333s-16.334-11.666-20-13.333
				s-4.666-3.333-9.333-4C239,371.667,238,369.667,244,369.667z"/>
		</g>
		<g id="Shadows_1_">
			<path id="Base_10_" fill="#492422" d="M296.667,394.334c0,0,8.999-6.666,5.666-10.333c-2.333-1.334-4.332-4.333-10.666-2
				c-2-1.334-3.666-3.668-12-4.334c-5-1-7.001-3-12.334-3.333s-20.333,1.001-24.667-1.333c-3,0.333-3.666-0.666-5.333,1
				c-1.667-1-1.333-2.666,1-4s3.333-2.333,6-1c-2,1.666-3,1-3.667,2.333c10.667,1.667,27,2.001,34.667-0.333
				c-0.666,2.333,0.334,4.334,5.667,4s4.667,0.334,8,1s8.666,0.332,11.333-4.334c5.667-2,8.667-1.666,12.334-5.666
				c5,1.667,9.833,7.249,16.333,2.666c-5,10.583-9.5,13.333-15.333,17C311.517,387.019,306.25,395.25,296.667,394.334z"/>
			<g id="Darker">
				<path fill="#261715" d="M319.333,370.333c0,0-1.333,4.668-10.333,4.334C304.333,376,304.334,378,298.667,378
					c8.333,0,10.332-1.667,13.666-1.667s9.001,0.001,11.334-1.666s2.999-2.334,3.666-3.667
					C324.667,371.667,322.999,372.666,319.333,370.333z"/>
			</g>
		</g>
		<g id="Highlights_2_">
			<path fill="#B1687D" d="M239.75,372.5c0,0,5.584,1.833,19.917,1.833c6.666,0,13.667,0.334,16,3.334c1,3.666-2.334,5-5.334,5
				s-7.333,3.667-14,0C249.667,379,247,376.75,239.75,372.5z"/>
			<path opacity="0.42" fill="#B1687D" d="M295.667,374.667c0,0-0.667,3-7.667,2c-1.333-1-1.667-3-4.667-3s-6,2.334-9-2
				c1.667-1,3.334-1.333,6.667-1s1.001,0.666,2.667,1.666s3.666,2,7.666,1C294.667,373,295.001,373.334,295.667,374.667z"/>
			<path opacity="0.66" fill="#B1687D" d="M291.333,382.667c0,0,6.668-0.334,9.334,0.333c0.666,2.333-2.001,3.666-4.334,3.333
				S289.999,384.667,291.333,382.667z"/>
		</g>
	</g>
	<g id="Eyes">
		<g id="Shadows_2_">
			<path fill="#73433C" d="M261.5,234.667c0,0-6.666-9.333-13.5-12.5c-6.833-3.167-19-3.167-24.667-2.5s-13,3.667-20.333,11.667
				c-0.5,3-1,5.333-1,5.333s6.642-8.569,14.167-12.833c5-2.833,9.833-3.833,16.5-3.5s12.333,1,16.5,3.667
				C253.334,226.667,257,229.5,261.5,234.667z"/>
			<path fill="#372B26" d="M326.333,238.667c0,0,6.334-8.333,15.334-9s18.666,0,25.333,6c3,2.667,3.667,4.333,5,6
				c-2.333,0-2.001-1.333-5.667-4.333s-6.667-5-13-6s-10-2-15,0S330.666,234.667,326.333,238.667z"/>
		</g>
		<g id="Left_x5F_eye">
			<path id="Ball_1_" fill="#FFFFFF" d="M364,246.667c0,0-2.999-4-7.333-7s-9.001-5.333-17.334-3.333c-8,2.667-11,7-13,9.667
				s-1.334,3,0,3.333S335.334,250,339.667,251S357,253.333,364,246.667z"/>
			<g id="Iris_1_">
				<radialGradient id="Base_3_" cx="344.6348" cy="244.166" r="8.968" gradientUnits="userSpaceOnUse">
					<stop  offset="0" style="stop-color:#29292B"/>
					<stop  offset="0.5399" style="stop-color:#577A8B"/>
					<stop  offset="1" style="stop-color:#424144"/>
				</radialGradient>
				<path id="Base_9_" fill="url(#Base_3_)" d="M353.5,237.375c0,0,4.334,8.625-2.666,12.958
					c-4.667,2.333-11.459,1.667-14.334-1.667c-1.25-1.667-3.334-4-1-10C341.167,236.333,346.625,236.125,353.5,237.375z"/>
				<g id="Layer_20_copy">
					<ellipse cx="345.5" cy="241.833" rx="3.166" ry="2.833"/>
				</g>
				<g id="Darker_copy">
					<path fill="#302F33" d="M353.75,237.75c0,0,2.416,3.583,0.25,8.417c-0.834-5-1.666-7.333-3.666-8.667s-9.167,0.167-11,0.5
						c-2,2-4.167,4.5-3.5,9.333c-1.334-2.333-2.25-4.167-0.584-9.333C339.5,235.125,347.75,232.875,353.75,237.75z"/>
				</g>
				<g id="Highlights_copy">
					<ellipse fill="#FFFFFF" cx="341.833" cy="247.333" rx="1.833" ry="2.333"/>
				</g>
			</g>
		</g>
		<g id="Right_x5F_eye">
			<path id="Ball" fill="#FFFFFF" d="M208.333,237.333c0,0,6.833-5,15.167-7.333s16.625-1,22.5,1.333
				c5.82,2.312,7.667,5.333,7.334,7C253,240,248,242,244.333,243s-13,2-23-1S214.333,238,208.333,237.333z"/>
			<g id="Ducts">
				<path fill="#6E4140" d="M244.667,243c0,0,8.792-2.875,7.458-7.875c7.25,4.25,8.874,6.542,9.208,8.542s0.335,3.334-3.666,1.667
					S256.666,242,244.667,243z"/>
				<path fill="#6E4140" d="M213.667,239c0,0-3.333-2.125,0.333-5.125c-4,1.333-6.333,4.125-6.333,4.125S211.333,238,213.667,239z"
					/>
			</g>
			<g id="Iris">
				<radialGradient id="Base_5_" cx="230.1353" cy="236.166" r="8.9677" gradientUnits="userSpaceOnUse">
					<stop  offset="0" style="stop-color:#29292B"/>
					<stop  offset="0.5399" style="stop-color:#577A8B"/>
					<stop  offset="1" style="stop-color:#424144"/>
				</radialGradient>
				<path id="Base_8_" fill="url(#Base_5_)" d="M239,229.375c0,0,4.333,8.625-2.667,12.958c-4.667,2.333-11.458,1.667-14.333-1.667
					c-1.25-1.667-3.333-4-1-10C226.667,228.333,232.125,228.125,239,229.375z"/>
				<g id="Layer_20">
					<ellipse cx="231" cy="233.833" rx="3.167" ry="2.833"/>
				</g>
				<g id="Darker_2_">
					<path fill="#302F33" d="M239,229.375c0,0,2.667,3.958,0.5,8.792c-0.833-5-1.667-7.333-3.667-8.667s-9.167,0.167-11,0.5
						c-2,2-4.167,4.5-3.5,9.333c-1.333-2.333-2-3.5-0.333-8.667C226.167,228.833,231.5,227.583,239,229.375z"/>
				</g>
				<g id="Highlights_1_">
					<ellipse fill="#FFFFFF" cx="227.333" cy="239.333" rx="1.833" ry="2.333"/>
				</g>
			</g>
			<g id="Ducts_1_">
				<path fill="#6E4140" d="M327.625,244.375c0,0-2.75,4.125,1.25,5.25c-2.125,0-4.375,0.125-3.875-2
					C325.75,246.5,326.5,245.375,327.625,244.375z"/>
				<path fill="#6E4140" d="M361.625,248.375c0,0,2.125-1.25,0.625-3.5c1.25,1.25,1.75,1.792,1.75,1.792
					S363.25,247.5,361.625,248.375z"/>
			</g>
			<g id="Lashes">
				<path fill="#1B1917" d="M252.666,235c0,0-6.5-7.333-17.666-7.833s-18.333,2.333-25.5,6.333c-2.167,1.5-4.5,4.667-4.5,4.667
					s2.167,0,3.333-0.833s5.833-3.833,10.833-5.833c6.681-2.672,14.5-3.625,19.833-2.125S247.333,231,252.666,235z"/>
				<path fill="#1B1917" d="M328.75,242.625c0,0,5.375-7.25,13.5-8.625c5-0.625,13.5,0,19,5.25c3.875,3.875,4.875,6,6.625,6.625
					c-1.375,0.75-2,1.75-3.875,0.792c-2.125-2.417-4.778-5.373-8.5-7.792c-4.167-2.708-14.833-3.208-19.25-1.5
					C330.775,239.493,330,241.875,328.75,242.625z"/>
			</g>
		</g>
	</g>
	<g id="Hair">
		<g id="Beard">
			<g id="Base_6_">
				<path opacity="0.51" fill="#322A20" d="M132.667,299c0,0-2,20.334-1.333,34.667S134.5,361,137.5,369.5s9,20.5,13,25.5
					s20.5,18.5,27,23s22.5,15,32,22s16,12.5,28.5,17s27.5,5,37.5,3c7.5,1.5,21.5,1,31-4s10.5-4.5,16-14.5S332,422,336,411
					c5-10,9.5-17,14.5-30.5s6-17,10-28.5c3-10.5,4.5-16,4.5-19.5c-16.5,34-18,38-27,44.5c-5.5,12.5-13,42-22.5,47
					c-5-3-15-4.5-33.5-5s-22.5,1-33.5,2.5C239,417,229,408,223.5,395s-0.5-15.5-24-37.5S160.334,357,132.667,299z"/>
				<path opacity="0.29" fill="#322A20" d="M218,382c0,0-2.5-7.5,1.5-16s5.5-14.5,12.5-19c11,1.5,20,8,36.5,3s23-4.5,26.5-3
					s7.5,3.5,11.5,2c5.5-0.5,10-1,13,2s6,4,10.5,4s8,9,8.5,13s-0.5,6,0,11.5c-4-6-5.5-4.166-9.5-10.833
					c-1.5-2.167-0.5-1.167-4.5-1.167s-10-2.5-12.5-5c-4,2.5-8.5,9-24-1c-10.5,2.5-32.5,7.5-38.5,6
					c-7.5,1.5-9.833,1.502-12.167,6.501S229,383,218,382z"/>
				<path opacity="0.68" fill="#322A20" d="M274.667,396.333c0,0,3.333-1.999,15.333-0.666s13.334,0,16.667-2
					c-5.333,8.666-4,5.999-2,8.666c-7.333,2.667-7.333,4.666-16,4c-7.342-0.564-13.999-4-17.333-4
					C274.667,399.667,276.667,398.333,274.667,396.333z"/>
			</g>
		</g>
		<g id="Main">
			<linearGradient id="SVGID_5_" gradientUnits="userSpaceOnUse" x1="234.3599" y1="26.4326" x2="234.3598" y2="300.0464">
				<stop  offset="0" style="stop-color:#322825"/>
				<stop  offset="1" style="stop-color:#150905"/>
			</linearGradient>
			<path fill="url(#SVGID_5_)" d="M162,208.333c0,0-2,27.333-7.333,34c-2,10-8,32.666-10.667,34s-7.333,10.001-2.667,17.334
				c-5.333,5.333-6.667,8-8.667,5.333s-0.667-4.666-2-13.333c-2,1.333-4,2.666-5.333,0.666c3.333-4,6-9.333,5.333-15.333
				c-3.333-5.333-3.333-10-4-15.334c-7.333,0.668-13.334,1.334-16.667-2c5.333-2,8-2,10-4c-3.333-5.333-7.333-9.333-6-21.333
				c-4.667-2-7.333-6-13.333-4C97.333,231,96,239,92.667,243.667c-7.333,2-11.333,1.333-11.333,1.333s1.333-2.667,2.667-18
				c-4,9.333-7.333,21.333-2.667,42c0,4-2.667,6.667-2.667,6.667s2-6.667-2-16c-4-9.333-2.667-16-3.333-25.333
				c-1.333-10-7.333-26.667-6.667-50.667C66.667,171,66.719,146.857,68,135c1.333-12.333,13.057-33.668,30-54c16.667-20,33-30,53-39
				c19.321-8.694,38.667-12.667,64-15c15.398-1.418,45-0.667,71.667,8c12.667,4.667,36,13.333,47.333,21.333
				C343.696,63.178,364,75,371.334,91s17.333,30.667,22,44s7.333,34.667,8,58s1.334,34,0,45.333S388,258.667,379.333,274.667
				c0.667-14-3.999-26.333,4.001-45.667c-2.334-12-2-18-4-30s-0.667-24-0.667-29.333s0.667-35.333-30-64
				c0,18-4.001,22.667-16.667,27.333s-33.333,5.333-43.333,9.333s-23.999,6-29.333,5.333c9.333-5.333,13.999-8.666,16.666-13.333
				c-16.666,4.667-32.666,7.333-39.333,6s-14-6-14-6S234.667,135,242,131c6.667-3.333,10-11.333,10-11.333
				s-10.667,8.667-26.667,7.333c9.333-8,12.667-19.333,11.333-28c-2.667-3.333-13.333-8-20-6S197.333,112.333,192,124.333
				S185.334,149,180.667,155C178.667,172.333,176.667,199,162,208.333z"/>
			<g id="Highlights_3_">
				<linearGradient id="SVGID_6_" gradientUnits="userSpaceOnUse" x1="234.2051" y1="21.5654" x2="234.2051" y2="241.6665">
					<stop  offset="0" style="stop-color:#675B47"/>
					<stop  offset="1" style="stop-color:#322825;stop-opacity:0.67"/>
				</linearGradient>
				<path fill="url(#SVGID_6_)" d="M66,194c0,0-3.333-41,2.667-61.667s16-37.333,25.333-48s25.333-28.667,43.333-36.667
					s32-13.333,55.333-18.667s33.999-8,49.333-7.333S282,27,300,35s41.334,20.667,53.334,33.333s24,29.333,32,48
					s11.334,21.333,14,42s4,25.333,4,47.333s-1.333,30-4,36c-5.334-16-8.668-26.666-9.334-35.333c-3.333,4-8,8-8,8
					s-1.832-7.833-2.666-15.333S378,185.5,378.5,171.5s-4.5-42.5-16-57s-13.5-21-23-28c5.5,10.5,9.5,20.5,7.5,29s-9.5,17.5-24,20
					s-26,3.5-37.5,6.5s-17,4.5-25.5,3.5c6.5-4.5,13.5-8.5,15.5-17.5c-17,11-17.5,12.5-29.5,15c-8.5,0.5-10,1-13-0.5
					c11-2.5,12.5-4.5,16.5-8.5c-13,4.5-17.5,7-24,5.5c13-5.5,15-8.5,18.5-16.5c-11.5,2-10.5,2.5-19,0.5
					c11.5-5.5,17.5-17.5,15.5-30.5s-19-10.5-19-10.5s-24.5-4-33.5,15s-0.5,23-4,38.5s-3,16.5-10,24c-2-11-4-9.5-3.5-25
					c-6.5,27-4.5,24.5-4,37.5s0.5,20.5-3,26.5c-9-9-19-20.5-20.5-31.5c4,33,9,30,7.5,48.5c-3.5-11.5-2-13-13-31c1,19,1,27-5,40.5
					c-4.5-8-8-1-13-25.5c-7-12.5-8.5-14-8.5-21.5c-4.5,24.5-4,33.5-12.5,43c-8.5,8-13,5-14.5,5.5c5.5-5,6.5-7.5,8-18s-0.5-13-5.5-24
					c-4,11-5.5,39.5-13,45C70.5,216,67,203.5,66,194z"/>
			</g>
		</g>
		<g id="Eyebrows">
			<linearGradient id="SVGID_7_" gradientUnits="userSpaceOnUse" x1="194" y1="208.5459" x2="279.5" y2="208.5459">
				<stop  offset="0" style="stop-color:#432F2B;stop-opacity:0"/>
				<stop  offset="0.3252" style="stop-color:#432F2B"/>
				<stop  offset="1" style="stop-color:#432F2B"/>
			</linearGradient>
			<path fill="url(#SVGID_7_)" d="M194,215.5c0,0,4-5.5,11.5-7.5c8.5-4,10-5,12.5-9.5c12.5-0.5,21,1,34.5,2c8.5,1,10.5,2,14,5.5
				s9.5,2.5,11,6s2,5.5,2,5.5S275,221,265,216c-8.5-1.5-24.5-3.5-36.5-3.5c-7.5,3.5-11.5,3-14,2.5c-4,1-10.5,2.5-13.5,1
				C199,215,195.5,214,194,215.5z"/>
			<linearGradient id="SVGID_8_" gradientUnits="userSpaceOnUse" x1="323.5" y1="223.0098" x2="383.6973" y2="223.0098">
				<stop  offset="0" style="stop-color:#432F2B;stop-opacity:0.34"/>
				<stop  offset="0.092" style="stop-color:#432F2B"/>
				<stop  offset="0.1292" style="stop-color:#3A2A26"/>
				<stop  offset="0.2073" style="stop-color:#2A221E"/>
				<stop  offset="0.2851" style="stop-color:#201B17"/>
				<stop  offset="0.362" style="stop-color:#1D1915"/>
			</linearGradient>
			<path fill="url(#SVGID_8_)" d="M323.5,227c0,0,9.5-9,14-11s8.5-2.5,12-5c5-2.5,5-0.5,9-0.5s4.5,1,9.5,0s5-3,8,0.5s6,5.5,7,9.5
				s1,12.5-0.5,16.5c-5-4.5-8-4.5-13-9c-3.5-3-4-5.5-9-5.5s-10.5,1-17,2S327.5,228.5,323.5,227z"/>
		</g>
		<g id="Highlights_5_">
			<linearGradient id="SVGID_9_" gradientUnits="userSpaceOnUse" x1="70.8755" y1="211.647" x2="380.7616" y2="98.8576">
				<stop  offset="0" style="stop-color:#82796A"/>
				<stop  offset="0.4969" style="stop-color:#726B5A;stop-opacity:0.39"/>
				<stop  offset="0.9509" style="stop-color:#645D4C"/>
			</linearGradient>
			<path opacity="0.86" fill="url(#SVGID_9_)" d="M67,201c0,0,9-1.5,13.5-26.5c4.5-2.5,6-5,9-8.5c0-5-2.5-7.5,2-15.5s14-20.5,21-25
				c-3.5,10-4.5,17-1,23c-1.5,12.5-2,34.5,3,43c2.5,4,4.5,7,8,10.5c1-7,1.5-7-1-12.5s-5.5-18.5-0.5-28s24-30.5,25-44.5s1-31,16.5-42
				c-4.5-6.5-14.5-5-25.5-0.5c9.5-15.5,34.5-29,50.5-37.5s52-12,67-8.5S305.5,41,326,57c-6-1.5-11-3-19-3c15,10,28,20.5,36.5,24.5
				c-9.5-3-18-3.5-20.5-3.5c13.5,5.5,25,9,30,19c8,9,20,17.5,27.5,22.5c7,6.5,9,11,10,15.5c-5-3.5-7.5-3-11.5-8.5
				c2.5,9.5,7.5,13,11,22c-2-0.5-6-3-6-3c3,7,12.5,13.5,13.5,27.5c-0.5,14,0,20-2.5,23.5c-5-7.5-7-10-10.5-21
				c-2,15.5,4,25.667,5.5,33.833c4.5,0.167,10,17.667,11,26.167c2-11.5,4-40-0.5-67.5s-8.5-36-12.5-44s-13.5-29-29-46.5
				s-22.5-21-37-29s-32-16-51-20s-27.667-3.833-36-4.167s-32,5-36,6S176.667,33,169.333,35S138.667,46.667,133,49.667
				S119.332,58,103.999,73s-23.333,29.333-30,43.333S67.333,136,66.333,144S63.667,184.667,67,201z"/>
			<linearGradient id="SVGID_10_" gradientUnits="userSpaceOnUse" x1="119.8823" y1="185.0234" x2="139.6705" y2="177.8211">
				<stop  offset="0" style="stop-color:#82796A;stop-opacity:0.42"/>
				<stop  offset="0.9509" style="stop-color:#645D4C;stop-opacity:0.11"/>
			</linearGradient>
			<path fill="url(#SVGID_10_)" d="M131,154c0,0-17.5,14-5.5,37c2.5,3,2.5,3,2.5,3s-4.5,8.5,1.5,14.5c0.5-6.5,2-12,5-15.5
				c-1.5-7-6.5-13-0.5-21.5C131,166,126.5,168.5,131,154z"/>
			<path fill="#3E342D" d="M336.5,102c0,0-2.25,16.75-14.25,19.75c5.25,0.5,10,1,16.25-2.75c-4.5,5.75-6.75,13-43.75,20.75
				c16.25-2.25,43.5-3.25,49.75-17.25c2-4,6-12.5,1-24.25C347,107,339.25,111.25,336.5,102z"/>
			<path fill="#3E342D" d="M275.5,128c0,0,25-18,29.5-10.667c-8.333,6.667-25.333,10.667-33.333,18
				C273.333,132.667,273.667,131.333,275.5,128z"/>
			<path fill="#3E342D" d="M363,115.25c0,0,15.333,21.083,21,27.25c2.667,4.5,9.333,12.833,11,16.833s3,8.417,1.75,10.667
				c-1.833-4.667-5.281-6.562-7.815-9.951C382.667,151.667,370.25,129.25,363,115.25z"/>
			<path opacity="0.58" fill="#3E342D" d="M355.667,84.667c0,0,14.334,6.333,22.667,17.333c-5.667-8.333-3.666-6-7-11
				C366.667,88,362.334,86.667,355.667,84.667z"/>
			<path opacity="0.15" fill="#B0A69A" d="M316,88.75c0,0,1.5,14-18.5,21.5c3-2.75,5-4,6.25-10.5c-8.25,7-20.75,14.5-42,11
				c8.5,0.25,28.5,0,35-12.5s4.75-19.5-1.5-30.25c5.5,6.25,19.75,17.25,16,7.75C314.5,81,315.25,84.25,316,88.75z"/>
			<path opacity="0.29" fill="#B0A69A" d="M258.667,94.333c0,0,0.333,19.5-16.667,24.333c3.667-0.167,7.834-2,9.667-3.167
				c-2.5,2.833-8.5,7.833-13.333,8.5c6.167-1,14.833-2.833,21.833-14.167c1.833-3.5,2.167-6.167,2.5-8.667
				c-1,2.833-1,4.667-3.167,7.167c1.5-4.333,2.999-12,2.333-19.5c-0.833,6.333-1,8.5-2.5,11.333
				C259.5,97.833,259.334,96.5,258.667,94.333z"/>
			<linearGradient id="SVGID_11_" gradientUnits="userSpaceOnUse" x1="137.4072" y1="152.5283" x2="160.1828" y2="144.2387">
				<stop  offset="0" style="stop-color:#82796A"/>
				<stop  offset="0.9509" style="stop-color:#645D4C"/>
			</linearGradient>
			<path opacity="0.77" fill="url(#SVGID_11_)" d="M148,131.667c0,0-6.667,7.667-7.333,18S141.333,164,143,167.5
				c0.333-5.167,0-7.833,2-12.833c0,4.333,1,6,3.333,8.667c2.667-6,6-15,5.333-22.333c-2.667,2-5.667,3-7,6
				c2.333-7.333,4-12.333,8.333-17c-5,3.667-8.667,7.667-9.667,10C146.333,136.667,147,134,148,131.667z"/>
			<linearGradient id="SVGID_12_" gradientUnits="userSpaceOnUse" x1="137" y1="59.959" x2="282.5" y2="59.959">
				<stop  offset="0" style="stop-color:#82796A"/>
				<stop  offset="0.9509" style="stop-color:#645D4C"/>
			</linearGradient>
			<path fill="url(#SVGID_12_)" d="M159,71.5c0,0,38.5-25.5,71.5-7.5c6,5,3,9,0.5,10.5c4.5-0.5,7-3,7-7c4.5,2.5,11,8,10.5,13.5
				c1-4.5-1-9.5-3-12.5c7,9,12.5,17.5,13,21c-3-12.5-8.5-26-26-34S205.5,49,198,50c17-13.75,62.5-12.5,84.5,6.5
				c-10-11-42-32-80.5-24.5c-13.167,2.167-51,21.5-65,42.5C140.667,72.667,155,69.5,159,71.5z"/>
		</g>
	</g>
	<g id="Glasses">
		<g id="Frames">
			<path fill="#1C241C" d="M131.667,231.667l38,6c0,0,8.333,0,10.667,0.667s3.333,3.333,4.667,5.667c0.333-6.333-1-15,1.667-18.333
				c-6,1.333-11.334,1-16.667,0.667C162.333,226,135.667,224,135.667,224S132.667,227.333,131.667,231.667z"/>
			<path fill="#1C241C" d="M379.667,242.667l25.333,2V254c0,0-10-0.333-12.333,3c0.667-2.334,0.333-4.334,0.333-4.334l-14.333-2
				C378.667,250.667,378,247.333,379.667,242.667z"/>
			<g id="Highlights_4_">
				<linearGradient id="SVGID_13_" gradientUnits="userSpaceOnUse" x1="171.3335" y1="235.25" x2="187.3335" y2="235.25">
					<stop  offset="0" style="stop-color:#FFFFFF;stop-opacity:0.48"/>
					<stop  offset="1" style="stop-color:#FFFFFF;stop-opacity:0"/>
				</linearGradient>
				<path fill="url(#SVGID_13_)" d="M171.667,227l-0.333,11l9,0.333c0,0,2.668,0.667,4.5,8.167c-0.167-10.5,0.5-20.833,2.5-22.5
					C183.667,226,186,227,171.667,227z"/>
				<linearGradient id="SVGID_14_" gradientUnits="userSpaceOnUse" x1="142.6665" y1="231.833" x2="168" y2="231.833">
					<stop  offset="0" style="stop-color:#FFFFFF;stop-opacity:0"/>
					<stop  offset="1" style="stop-color:#FFFFFF;stop-opacity:0.71"/>
				</linearGradient>
				<path fill="url(#SVGID_14_)" d="M168,227l-0.667,9.667l-24.667-4c0,0,6-5.667,12.667-5.667S168,227,168,227z"/>
			</g>
		</g>
		<linearGradient id="Lenses_1_" gradientUnits="userSpaceOnUse" x1="183.8096" y1="248.3203" x2="394.957" y2="248.3203">
			<stop  offset="0" style="stop-color:#DBDBDB"/>
			<stop  offset="0.319" style="stop-color:#525252"/>
			<stop  offset="1" style="stop-color:#000000"/>
		</linearGradient>
		<path id="Lenses" fill="url(#Lenses_1_)" d="M394.334,246c-3.408-8.179-7.5-9-19.5-12.5s-50-2.5-58,4.5c-4.5-3-19-6-28.5-4
			c0,0-5-11.5-31.5-15s-44.899-4.854-61-1.5c-12,2.5-13.5,14-11,29s17.794,22.122,24.5,24c12.5,3.5,52,4.5,61.5-2.5s14-10,18.5-27.5
			c10-2,19.5,0,25,3.5c1,9.5,0.498,18.919,6,25c9.5,10.5,26,12.5,41,12c10.5,0,19.112-0.346,25-8
			C391.334,266.5,396.834,252,394.334,246z M286.337,240.311c-4.226,16.431-8.45,19.248-17.37,25.821s-46.008,5.634-57.744,2.347
			c-6.296-1.763-20.657-8.449-23.004-22.534c-2.347-14.084-0.939-24.882,10.328-27.229c15.118-3.15,32.393-1.878,57.275,1.408
			c24.881,3.286,29.576,14.084,29.576,14.084C286.668,237,286.668,238.333,286.337,240.311z M383.996,271.826
			c-5.528,7.188-13.614,7.512-23.473,7.512c-14.084,0.469-29.577-1.408-38.497-11.268c-5.165-5.709-4.694-14.553-5.633-23.473
			c0.523-2.597,1.523-4.264,2.347-5.633c7.512-6.573,43.191-7.512,54.458-4.225c11.268,3.286,15.109,4.057,18.31,11.736
			C393.855,252.109,388.69,265.723,383.996,271.826z"/>
		<g id="Flares">
			<radialGradient id="SVGID_15_" cx="208.5" cy="245.166" r="15.348" gradientUnits="userSpaceOnUse">
				<stop  offset="0" style="stop-color:#FFFFFF;stop-opacity:0.62"/>
				<stop  offset="1" style="stop-color:#FFFFFF;stop-opacity:0.23"/>
			</radialGradient>
			<ellipse fill="url(#SVGID_15_)" cx="208.5" cy="245.166" rx="16" ry="14.667"/>
			<radialGradient id="SVGID_16_" cx="334" cy="254.541" r="13.9091" gradientUnits="userSpaceOnUse">
				<stop  offset="0" style="stop-color:#FFFFFF;stop-opacity:0.62"/>
				<stop  offset="1" style="stop-color:#FFFFFF;stop-opacity:0.23"/>
			</radialGradient>
			<ellipse fill="url(#SVGID_16_)" cx="334" cy="254.541" rx="14.5" ry="13.292"/>
		</g>
	</g>
</g>
</svg>
